<svg width="61" height="41" viewBox="0 0 61 41" fill="none" xmlns="http://www.w3.org/2000/svg">
<path d="M38.425 22.216L28.508 8.163L18.356 22.216H38.425ZM33.349 19.678H23.385L28.414 12.628L33.349 19.678ZM45.428 32.415L40.352 25.13H16.335C15.4577 26.3207 14.596 27.5427 13.75 28.796C12.9353 30.018 12.0893 31.2243 11.212 32.415H7.452C10.7733 27.7463 14.079 23.1247 17.369 18.55C20.6903 13.9753 23.996 9.35367 27.286 4.685H29.542L48.953 32.415H45.428ZM26.017 2.053L2.517 35.047H12.481L17.651 27.762H38.895L44.018 35.047H53.982L30.952 2.053H26.017ZM36.216 5.719L60.656 40.781H48.154L43.407 36.222L41.48 33.496H22.915C22.539 34.06 22.116 34.6553 21.646 35.282C21.2073 35.9087 20.753 36.5353 20.283 37.162C19.8443 37.82 19.4057 38.4467 18.967 39.042C18.5283 39.6687 18.121 40.2483 17.745 40.781H5.196L0.214 36.222L25.406 0.877999H31.563L36.216 5.719Z" fill="#FF750B"/>
</svg>
